HIERARCHY
ROOT newVegas:Hips
{
	OFFSET 0.000000 96.479958 0.000000
	CHANNELS 6 Xposition Yposition Zposition Xrotation Yrotation Zrotation
	JOINT newVegas:Pelvis
	{
		OFFSET 0.000000 0.000000 0.000000
		CHANNELS 3 Xrotation Yrotation Zrotation
		JOINT newVegas:LeftUpLeg
		{
			OFFSET 18.735201 -5.666702 -4.541200
			CHANNELS 3 Xrotation Yrotation Zrotation
			JOINT newVegas:LeftLeg
			{
				OFFSET -0.021200 -31.938179 0.493100
				CHANNELS 3 Xrotation Yrotation Zrotation
				JOINT newVegas:LeftFoot
				{
					OFFSET 0.021200 -31.938179 -4.336299
					CHANNELS 3 Xrotation Yrotation Zrotation
					JOINT newVegas:LeftToeBase
					{
						OFFSET 0.943001 -26.722000 15.023500
						CHANNELS 3 Xrotation Yrotation Zrotation
						End Site
						{
							OFFSET 0.000000 30.670183 0.000000
						}
					}
				}
				JOINT newVegas:Left_PantLeg
				{
					OFFSET 0.663870 -9.044666 -1.108900
					CHANNELS 3 Xrotation Yrotation Zrotation
					End Site
					{
						OFFSET 1.415995 20.635357 0.000000
					}
				}
			}
		}
		JOINT newVegas:RightUpLeg
		{
			OFFSET -18.735201 -5.666702 -4.541200
			CHANNELS 3 Xrotation Yrotation Zrotation
			JOINT newVegas:RightLeg
			{
				OFFSET 0.018946 -31.938133 0.493100
				CHANNELS 3 Xrotation Yrotation Zrotation
				JOINT newVegas:RightFoot
				{
					OFFSET -0.018946 -31.938126 -4.336299
					CHANNELS 3 Xrotation Yrotation Zrotation
					JOINT newVegas:RightToeBase
					{
						OFFSET -0.943001 -26.722004 15.023500
						CHANNELS 3 Xrotation Yrotation Zrotation
						End Site
						{
							OFFSET 0.000000 30.670187 0.000000
						}
					}
				}
				JOINT newVegas:Right_PantLeg
				{
					OFFSET -0.661674 -9.044716 -1.108900
					CHANNELS 3 Xrotation Yrotation Zrotation
					End Site
					{
						OFFSET -1.415958 20.635269 0.000000
					}
				}
			}
		}
	}
	JOINT newVegas:Spine
	{
		OFFSET 0.000000 10.199997 -0.299500
		CHANNELS 3 Xrotation Yrotation Zrotation
		JOINT newVegas:Spine1
		{
			OFFSET 0.000000 11.900002 -1.516600
			CHANNELS 3 Xrotation Yrotation Zrotation
			JOINT newVegas:Spine2
			{
				OFFSET 0.000000 13.600006 -2.842500
				CHANNELS 3 Xrotation Yrotation Zrotation
				JOINT newVegas:Neck
				{
					OFFSET 0.000000 9.624100 -2.890100
					CHANNELS 3 Xrotation Yrotation Zrotation
					JOINT newVegas:Head
					{
						OFFSET 0.000000 14.068802 -1.351900
						CHANNELS 3 Xrotation Yrotation Zrotation
						JOINT newVegas:Hair_Back
						{
							OFFSET 0.000000 3.231903 -17.524799
							CHANNELS 3 Xrotation Yrotation Zrotation
							End Site
							{
								OFFSET 0.000000 19.849884 0.000000
							}
						}
						JOINT newVegas:Hair_Front
						{
							OFFSET 0.000000 31.260406 4.573800
							CHANNELS 3 Xrotation Yrotation Zrotation
							JOINT newVegas:Hair_Front1
							{
								OFFSET 0.000000 2.284103 11.993300
								CHANNELS 3 Xrotation Yrotation Zrotation
								JOINT newVegas:Hair_Front2
								{
									OFFSET 0.000000 2.284103 11.993300
									CHANNELS 3 Xrotation Yrotation Zrotation
									End Site
									{
										OFFSET 0.000000 12.208862 0.000000
									}
								}
							}
						}
						JOINT newVegas:Jowel
						{
							OFFSET 0.000000 -7.458206 6.864100
							CHANNELS 3 Xrotation Yrotation Zrotation
							End Site
							{
								OFFSET 0.000000 19.849884 0.000000
							}
						}
					}
				}
				JOINT newVegas:LeftShoulder
				{
					OFFSET 15.263000 10.923401 -0.547700
					CHANNELS 3 Xrotation Yrotation Zrotation
					JOINT newVegas:LeftArm
					{
						OFFSET 25.438599 -2.830597 -13.032500
						CHANNELS 3 Xrotation Yrotation Zrotation
						JOINT newVegas:LeftForeArm
						{
							OFFSET 29.960503 0.000000 0.000000
							CHANNELS 3 Xrotation Yrotation Zrotation
							JOINT newVegas:LeftHand
							{
								OFFSET 27.849251 0.000000 0.000000
								CHANNELS 3 Xrotation Yrotation Zrotation
								JOINT newVegas:LeftHandThumb1
								{
									OFFSET 4.487587 -3.305161 6.305391
									CHANNELS 3 Xrotation Yrotation Zrotation
									JOINT newVegas:LeftHandThumb2
									{
										OFFSET 5.480453 -3.164139 3.164143
										CHANNELS 3 Xrotation Yrotation Zrotation
										JOINT newVegas:LeftHandThumb3
										{
											OFFSET 5.159721 -2.978973 2.978967
											CHANNELS 3 Xrotation Yrotation Zrotation
											End Site
											{
												OFFSET 2.494507 5.926697 1.738678
											}
										}
									}
								}
								JOINT newVegas:LeftHandIndex1
								{
									OFFSET 18.578728 -0.527832 5.208049
									CHANNELS 3 Xrotation Yrotation Zrotation
									JOINT newVegas:LeftHandIndex2
									{
										OFFSET 3.192009 0.000000 0.000000
										CHANNELS 3 Xrotation Yrotation Zrotation
										JOINT newVegas:LeftHandIndex3
										{
											OFFSET 3.835129 0.000000 0.000000
											CHANNELS 3 Xrotation Yrotation Zrotation
											End Site
											{
												OFFSET -0.034599 3.816971 0.371180
											}
										}
									}
								}
								JOINT newVegas:LeftHandMiddle1
								{
									OFFSET 18.476105 0.000000 0.000000
									CHANNELS 3 Xrotation Yrotation Zrotation
									JOINT newVegas:LeftHandMiddle2
									{
										OFFSET 3.324875 0.000000 0.000000
										CHANNELS 3 Xrotation Yrotation Zrotation
										JOINT newVegas:LeftHandMiddle3
										{
											OFFSET 4.596550 0.000000 0.000000
											CHANNELS 3 Xrotation Yrotation Zrotation
											End Site
											{
												OFFSET 0.057701 4.578827 0.399218
											}
										}
									}
								}
								JOINT newVegas:LeftHandRing1
								{
									OFFSET 17.732719 0.121887 -4.201567
									CHANNELS 3 Xrotation Yrotation Zrotation
									JOINT newVegas:LeftHandRing2
									{
										OFFSET 2.733170 0.000000 0.000000
										CHANNELS 3 Xrotation Yrotation Zrotation
										JOINT newVegas:LeftHandRing3
										{
											OFFSET 3.178268 0.000000 0.000000
											CHANNELS 3 Xrotation Yrotation Zrotation
											End Site
											{
												OFFSET 0.119102 3.170624 0.185394
											}
										}
									}
								}
								JOINT newVegas:LeftHandPinky1
								{
									OFFSET 15.989624 -0.606689 -7.535461
									CHANNELS 3 Xrotation Yrotation Zrotation
									JOINT newVegas:LeftHandPinky2
									{
										OFFSET 2.538986 0.000000 0.000000
										CHANNELS 3 Xrotation Yrotation Zrotation
										JOINT newVegas:LeftHandPinky3
										{
											OFFSET 2.593102 0.000000 0.000000
											CHANNELS 3 Xrotation Yrotation Zrotation
											End Site
											{
												OFFSET -0.150902 2.584198 0.152708
											}
										}
									}
								}
							}
							JOINT newVegas:Left_Sleeve
							{
								OFFSET 0.267448 -0.649796 0.577675
								CHANNELS 3 Xrotation Yrotation Zrotation
								End Site
								{
									OFFSET 0.000000 15.991241 0.000000
								}
							}
							JOINT newVegas:Left_CapeC
							{
								OFFSET 15.715958 -8.608795 -6.935905
								CHANNELS 3 Xrotation Yrotation Zrotation
								JOINT newVegas:Left_CapeC1
								{
									OFFSET 0.000000 -8.688499 0.000000
									CHANNELS 3 Xrotation Yrotation Zrotation
									End Site
									{
										OFFSET 0.000000 8.688499 0.000000
									}
								}
							}
						}
						JOINT newVegas:Left_CapeB
						{
							OFFSET 26.118385 -8.608795 -7.079235
							CHANNELS 3 Xrotation Yrotation Zrotation
							JOINT newVegas:Left_CapeB1
							{
								OFFSET 0.000000 -8.688499 0.000000
								CHANNELS 3 Xrotation Yrotation Zrotation
								End Site
								{
									OFFSET 0.000000 8.688499 0.000000
								}
							}
						}
						JOINT newVegas:Left_CapeA
						{
							OFFSET 5.115639 -8.608795 -10.395809
							CHANNELS 3 Xrotation Yrotation Zrotation
							JOINT newVegas:Left_CapeA1
							{
								OFFSET 0.000000 -8.688499 0.000000
								CHANNELS 3 Xrotation Yrotation Zrotation
								End Site
								{
									OFFSET 0.000000 8.688499 0.000000
								}
							}
						}
					}
				}
				JOINT newVegas:RightShoulder
				{
					OFFSET -15.263000 10.923401 -0.547700
					CHANNELS 3 Xrotation Yrotation Zrotation
					JOINT newVegas:RightArm
					{
						OFFSET -25.438599 -2.830597 -13.032500
						CHANNELS 3 Xrotation Yrotation Zrotation
						JOINT newVegas:RightForeArm
						{
							OFFSET -29.960503 0.000000 0.000000
							CHANNELS 3 Xrotation Yrotation Zrotation
							JOINT newVegas:RightHand
							{
								OFFSET -27.849251 0.000000 0.000000
								CHANNELS 3 Xrotation Yrotation Zrotation
								JOINT newVegas:RightHandThumb1
								{
									OFFSET -4.487587 -3.305161 6.305391
									CHANNELS 3 Xrotation Yrotation Zrotation
									JOINT newVegas:RightHandThumb2
									{
										OFFSET -5.480453 -3.164139 3.164143
										CHANNELS 3 Xrotation Yrotation Zrotation
										JOINT newVegas:RightHandThumb3
										{
											OFFSET -5.159721 -2.978973 2.978967
											CHANNELS 3 Xrotation Yrotation Zrotation
											End Site
											{
												OFFSET -2.494507 5.926697 1.738678
											}
										}
									}
								}
								JOINT newVegas:RightHandIndex1
								{
									OFFSET -18.578728 -0.527832 5.208049
									CHANNELS 3 Xrotation Yrotation Zrotation
									JOINT newVegas:RightHandIndex2
									{
										OFFSET -3.192009 0.000000 0.000000
										CHANNELS 3 Xrotation Yrotation Zrotation
										JOINT newVegas:RightHandIndex3
										{
											OFFSET -3.835129 0.000000 0.000000
											CHANNELS 3 Xrotation Yrotation Zrotation
											End Site
											{
												OFFSET 0.034599 3.816971 0.371180
											}
										}
									}
								}
								JOINT newVegas:RightHandMiddle1
								{
									OFFSET -18.476105 0.000000 0.000000
									CHANNELS 3 Xrotation Yrotation Zrotation
									JOINT newVegas:RightHandMiddle2
									{
										OFFSET -3.324875 0.000000 0.000000
										CHANNELS 3 Xrotation Yrotation Zrotation
										JOINT newVegas:RightHandMiddle3
										{
											OFFSET -4.596550 0.000000 0.000000
											CHANNELS 3 Xrotation Yrotation Zrotation
											End Site
											{
												OFFSET -0.057701 4.578827 0.399218
											}
										}
									}
								}
								JOINT newVegas:RightHandRing1
								{
									OFFSET -17.732719 0.121887 -4.201567
									CHANNELS 3 Xrotation Yrotation Zrotation
									JOINT newVegas:RightHandRing2
									{
										OFFSET -2.733170 0.000000 0.000000
										CHANNELS 3 Xrotation Yrotation Zrotation
										JOINT newVegas:RightHandRing3
										{
											OFFSET -3.178268 0.000000 0.000000
											CHANNELS 3 Xrotation Yrotation Zrotation
											End Site
											{
												OFFSET -0.119102 3.170624 0.185394
											}
										}
									}
								}
								JOINT newVegas:RightHandPinky1
								{
									OFFSET -15.989624 -0.606689 -7.535461
									CHANNELS 3 Xrotation Yrotation Zrotation
									JOINT newVegas:RightHandPinky2
									{
										OFFSET -2.538986 0.000000 0.000000
										CHANNELS 3 Xrotation Yrotation Zrotation
										JOINT newVegas:RightHandPinky3
										{
											OFFSET -2.593102 0.000000 0.000000
											CHANNELS 3 Xrotation Yrotation Zrotation
											End Site
											{
												OFFSET 0.150902 2.584198 0.152708
											}
										}
									}
								}
							}
							JOINT newVegas:Right_CapeC
							{
								OFFSET -15.715958 -8.608795 -6.935905
								CHANNELS 3 Xrotation Yrotation Zrotation
								JOINT newVegas:Right_CapeC1
								{
									OFFSET 0.000000 -8.688499 0.000000
									CHANNELS 3 Xrotation Yrotation Zrotation
									End Site
									{
										OFFSET 0.000000 8.688499 0.000000
									}
								}
							}
							JOINT newVegas:Right_Sleeve
							{
								OFFSET -0.267448 -0.649994 0.577675
								CHANNELS 3 Xrotation Yrotation Zrotation
								End Site
								{
									OFFSET 0.000000 15.991302 0.000000
								}
							}
						}
						JOINT newVegas:Right_CapeA
						{
							OFFSET -5.115540 -8.608795 -10.395824
							CHANNELS 3 Xrotation Yrotation Zrotation
							JOINT newVegas:Right_CapeA1
							{
								OFFSET 0.000000 -8.688499 0.000000
								CHANNELS 3 Xrotation Yrotation Zrotation
								End Site
								{
									OFFSET 0.000000 8.688499 0.000000
								}
							}
						}
						JOINT newVegas:Right_CapeB
						{
							OFFSET -26.118187 -8.608795 -7.079266
							CHANNELS 3 Xrotation Yrotation Zrotation
							JOINT newVegas:Right_CapeB1
							{
								OFFSET 0.000000 -8.688499 0.000000
								CHANNELS 3 Xrotation Yrotation Zrotation
								End Site
								{
									OFFSET 0.000000 8.688499 0.000000
								}
							}
						}
					}
				}
				JOINT newVegas:Left_Collar
				{
					OFFSET 18.625099 8.655502 8.828100
					CHANNELS 3 Xrotation Yrotation Zrotation
					JOINT newVegas:Left_Collar1
					{
						OFFSET 14.783401 10.540405 -1.259500
						CHANNELS 3 Xrotation Yrotation Zrotation
						End Site
						{
							OFFSET 0.000000 18.199875 0.000000
						}
					}
				}
				JOINT newVegas:Collar_Back
				{
					OFFSET 0.000000 15.630707 -20.132601
					CHANNELS 3 Xrotation Yrotation Zrotation
					End Site
					{
						OFFSET 0.000000 22.523010 0.000000
					}
				}
				JOINT newVegas:Left_Peck
				{
					OFFSET 17.239599 -5.132599 25.482599
					CHANNELS 3 Xrotation Yrotation Zrotation
					End Site
					{
						OFFSET 0.000000 22.523010 0.000000
					}
				}
				JOINT newVegas:Right_Peck
				{
					OFFSET -17.239599 -5.132202 25.482599
					CHANNELS 3 Xrotation Yrotation Zrotation
					End Site
					{
						OFFSET 0.000000 22.523010 0.000000
					}
				}
				JOINT newVegas:Right_Collar
				{
					OFFSET -18.625099 8.655792 8.828100
					CHANNELS 3 Xrotation Yrotation Zrotation
					JOINT newVegas:Right_Collar1
					{
						OFFSET -14.783401 10.539993 -1.259500
						CHANNELS 3 Xrotation Yrotation Zrotation
						End Site
						{
							OFFSET 0.000000 18.199631 0.000000
						}
					}
				}
			}
		}
		JOINT newVegas:Belly
		{
			OFFSET 0.000000 -6.540398 9.014299
			CHANNELS 3 Xrotation Yrotation Zrotation
			End Site
			{
				OFFSET 0.000000 11.566666 0.000000
			}
		}
	}
	JOINT newVegas:ElvisFacialAnim_Joint
	{
		OFFSET 1.000000 -95.330101 -8.825800
		CHANNELS 3 Xrotation Yrotation Zrotation
		End Site
		{
			OFFSET 0.000000 35.315800 0.000000
		}
	}
}
MOTION
Frames: 4
Frame Time: 0.033333
-1.889056 88.154182 1.404044 -10.035687 -48.566214 -9.814746 -0.000000 0.000000 -0.000000 -33.022629 1.190030 20.154377 40.721871 -12.581006 -0.014629 -2.671904 1.167149 -12.206000 0.000000 0.000001 0.000000 0.000000 -0.000001 -0.000001 0.226700 -14.007514 -16.625994 33.478971 -3.670028 -0.053157 -23.528231 -5.343661 18.832886 -0.000000 0.000000 -0.000000 0.000000 -0.000001 -0.000003 5.563866 3.688662 -1.527478 11.221962 7.372952 -3.014910 11.221969 7.372936 -3.014909 3.037840 0.340111 1.475738 3.037828 0.340122 1.475711 0.000000 0.000000 -0.000001 3.037971 0.339966 1.475780 3.037725 0.340263 1.475729 -0.000001 0.000002 -0.000002 0.000000 0.000000 -0.000001 0.953436 -3.547895 -3.930021 -11.809473 5.792889 -64.700401 8.881929 -45.332034 5.659751 16.088867 0.756857 19.188872 18.872120 9.241808 -11.733266 -0.335157 0.032537 0.783748 0.000003 -0.000002 -0.000003 0.899206 0.385492 -25.820635 -1.346759 -1.737963 -40.398848 0.000003 0.000002 -0.000001 1.144642 7.917362 -34.082555 -1.911274 -3.723877 -45.997612 0.000001 -0.000000 -0.000001 2.033625 14.179129 -44.144452 -0.958395 -3.203672 -42.224974 0.000002 -0.000000 -0.000003 3.636741 17.928743 -48.928258 -0.816948 -5.900798 -46.675727 -0.000002 -0.000010 0.000001 -0.000001 0.000000 -0.000001 -0.000001 0.000000 -0.000001 -0.000002 0.000000 -0.000001 -0.000000 0.000000 -0.000000 0.000000 0.000000 -0.000000 -0.000000 0.000000 -0.000000 -0.000001 0.000000 -0.000000 -2.830828 4.042848 6.858107 -44.065823 37.531213 15.877468 167.784949 59.662515 -165.664039 12.029318 -3.568856 -13.555853 -12.420481 2.085380 3.286302 7.904741 -19.192470 -2.856902 0.000000 0.000001 -0.000000 -1.101130 -1.040358 6.633001 0.022937 -0.763108 20.634932 0.000004 -0.000000 0.000000 -0.728413 -2.622768 14.143793 -0.115328 0.485252 14.547920 -0.000001 0.000001 -0.000002 2.545205 -7.714327 18.075930 -0.193391 2.162715 16.666876 -0.000002 0.000002 0.000000 3.836515 -11.120346 14.213571 -0.723718 6.709865 23.128938 -0.000000 -0.000000 0.000003 -0.000001 -0.000000 -0.000001 -0.000000 -0.000000 -0.000002 -0.000000 0.000000 -0.000001 -0.000002 0.000000 -0.000000 -0.000002 0.000001 0.000000 -0.000002 0.000000 -0.000000 -0.000002 0.000001 0.000000 -0.000000 0.000003 -0.000001 -0.000000 0.000003 -0.000001 -0.000000 0.000003 -0.000001 -0.000000 0.000003 -0.000001 -0.000000 0.000003 -0.000001 -0.000000 0.000003 -0.000001 -0.000000 0.000003 -0.000001 0.000000 -0.000002 0.000000 -0.000000 0.000000 -0.000000 
-1.850564 88.129608 1.507852 -9.747220 -48.241507 -9.394102 0.000000 0.000001 0.000000 -33.264227 1.314411 19.792090 40.596623 -12.803280 -0.024535 -2.503601 1.131968 -12.017099 -0.000000 -0.000002 -0.000000 -0.000000 -0.000002 0.000001 0.280745 -13.971865 -16.782738 33.481645 -4.056619 -0.072397 -23.600394 -5.431436 19.093268 0.000000 0.000002 -0.000000 0.000000 -0.000002 0.000000 5.597976 3.717919 -1.637603 11.299128 7.420498 -3.247829 11.299132 7.420513 -3.247833 3.066234 0.443798 1.266796 3.066223 0.443816 1.266789 0.000000 -0.000001 0.000001 3.066245 0.443779 1.266799 3.066218 0.443839 1.266790 -0.000004 0.000001 -0.000001 0.000000 -0.000001 0.000001 0.978123 -2.877664 -3.973022 -12.321108 5.227799 -64.709738 8.820525 -46.306596 5.815258 15.813853 0.567676 19.629436 18.770383 9.202925 -11.654971 -0.335157 0.032535 0.783755 0.000005 -0.000000 -0.000001 0.846965 0.318648 -25.580872 -1.326239 -1.714007 -40.138440 0.000000 -0.000001 -0.000000 1.154107 7.928876 -33.870003 -1.890613 -3.704181 -45.735596 -0.000002 -0.000000 -0.000001 2.039443 14.183904 -44.005314 -0.953044 -3.198708 -42.114188 0.000002 0.000001 0.000002 3.640574 17.931547 -48.776334 -0.815417 -5.899635 -46.596524 -0.000002 -0.000007 -0.000003 0.000002 -0.000004 0.000001 0.000002 -0.000004 0.000001 0.000002 -0.000003 0.000001 0.000001 0.000000 0.000000 0.000002 0.000001 0.000000 0.000001 0.000000 0.000000 0.000000 -0.000001 0.000000 -2.286643 4.172742 6.739241 -37.967929 28.694748 12.885516 170.335205 54.549162 -169.839457 11.636110 -5.125070 -17.438738 -12.237171 1.730745 3.074989 7.904740 -19.192470 -2.856898 0.000002 0.000000 -0.000002 -1.083375 -1.242567 4.061226 0.115172 -1.029141 17.840570 0.000002 0.000002 -0.000001 -0.687461 -2.787047 12.013502 -0.053692 0.224773 11.572431 -0.000000 0.000002 -0.000002 2.612067 -7.946341 15.648969 -0.120701 1.878391 13.281545 0.000001 0.000001 -0.000000 3.917595 -11.435850 11.206659 -0.657166 6.524703 20.576800 0.000000 0.000003 -0.000000 -0.000001 0.000001 0.000002 -0.000000 -0.000003 0.000003 -0.000000 0.000001 0.000002 -0.000002 -0.000001 0.000000 -0.000002 -0.000001 0.000001 -0.000002 -0.000001 0.000000 -0.000002 -0.000001 0.000001 0.000001 -0.000001 -0.000000 0.000001 -0.000001 -0.000000 0.000001 -0.000001 -0.000000 0.000001 -0.000001 -0.000000 0.000001 -0.000001 -0.000000 0.000001 -0.000001 -0.000000 0.000001 -0.000001 -0.000000 0.000000 -0.000001 0.000000 0.000000 0.000001 0.000000 
-1.810173 88.093918 1.619651 -9.399559 -47.768789 -8.953192 -0.000000 -0.000002 -0.000000 -33.628300 1.407358 19.420139 40.501482 -13.156852 -0.040076 -2.289923 1.089916 -11.786343 0.000000 -0.000001 -0.000000 -0.000000 -0.000003 -0.000000 0.450262 -13.984467 -16.845864 33.398051 -4.586021 -0.099891 -23.664753 -5.532613 19.404448 0.000000 -0.000000 -0.000000 0.000000 0.000000 -0.000001 5.626859 3.758148 -1.757710 11.366583 7.488666 -3.497501 11.366585 7.488649 -3.497498 3.125572 0.558593 1.048317 3.125553 0.558608 1.048321 0.000000 -0.000000 0.000000 3.125557 0.558608 1.048317 3.125564 0.558613 1.048317 0.000002 0.000001 -0.000000 0.000000 -0.000000 -0.000000 1.002155 -2.367477 -4.007661 -12.719279 4.840760 -64.792383 8.791745 -47.548140 6.125329 15.592902 0.455241 19.903535 18.652634 9.157750 -11.564567 -0.335154 0.032537 0.783746 -0.000000 -0.000001 -0.000003 0.787367 0.240790 -25.303493 -1.302618 -1.686196 -39.837003 0.000001 0.000000 -0.000000 1.165156 7.942828 -33.623997 -1.866975 -3.681137 -45.432339 -0.000004 0.000001 0.000002 2.046478 14.189694 -43.844309 -0.946886 -3.192870 -41.985965 -0.000005 -0.000000 -0.000003 3.645085 17.934815 -48.600481 -0.813735 -5.898393 -46.504818 0.000000 -0.000003 -0.000001 -0.000000 0.000002 -0.000002 -0.000000 0.000002 -0.000002 -0.000001 0.000003 -0.000002 -0.000002 -0.000001 0.000000 -0.000002 0.000000 0.000000 -0.000002 -0.000001 0.000000 -0.000002 -0.000002 0.000000 -1.641637 4.591737 6.316332 -32.315333 18.366438 11.854159 173.577728 50.494315 -173.864241 9.954705 -6.564191 -19.100510 -11.940030 1.151929 2.735479 7.904740 -19.192473 -2.856900 -0.000000 -0.000002 -0.000003 -1.076081 -1.386177 2.231279 0.196557 -1.307514 14.961895 -0.000001 0.000002 -0.000002 -0.666652 -2.880654 10.748510 -0.020365 0.061744 9.721528 0.000000 -0.000001 0.000001 2.641946 -8.078157 14.247301 -0.082975 1.681979 10.976791 -0.000000 -0.000001 -0.000001 3.951038 -11.628085 9.443230 -0.621840 6.401637 18.923760 -0.000001 -0.000000 -0.000000 0.000000 0.000003 -0.000001 0.000001 0.000001 -0.000003 0.000000 0.000003 -0.000001 -0.000001 0.000000 -0.000001 -0.000001 0.000000 -0.000001 -0.000001 0.000000 -0.000001 -0.000001 0.000001 -0.000001 0.000001 0.000001 -0.000000 0.000001 0.000001 -0.000000 0.000001 0.000001 -0.000000 0.000001 0.000001 -0.000000 0.000001 0.000001 -0.000000 0.000001 0.000001 -0.000000 0.000001 0.000001 -0.000000 0.000000 -0.000000 0.000000 -0.000000 -0.000002 -0.000000 
-1.792109 88.062164 1.747118 -9.089699 -47.284911 -8.537699 0.000000 -0.000000 -0.000000 -33.945736 1.513933 19.049999 40.410053 -13.524492 -0.056347 -2.103792 1.052180 -11.555521 -0.000000 -0.000001 -0.000000 -0.000000 -0.000002 -0.000001 0.698591 -14.014560 -16.900019 33.259722 -5.121325 -0.128017 -23.726687 -5.635683 19.721963 0.000000 0.000002 0.000000 0.000001 -0.000003 0.000000 5.682407 3.839588 -1.867832 11.488685 7.638485 -3.732154 11.488677 7.638493 -3.732154 3.188656 0.675098 0.815168 3.188630 0.675098 0.815172 -0.000001 -0.000000 0.000000 3.188702 0.675112 0.815163 3.188662 0.675093 0.815167 0.000000 0.000001 0.000001 -0.000001 -0.000000 0.000001 1.040865 -1.877499 -4.278797 -13.123308 4.456777 -64.659215 8.772295 -48.877735 6.421451 15.310263 0.349562 20.466039 18.519372 9.106224 -11.462769 -0.335156 0.032537 0.783753 0.000000 0.000000 -0.000001 0.721086 0.152024 -24.989985 -1.276203 -1.654567 -39.496365 -0.000003 0.000003 0.000001 1.177591 7.958824 -33.346022 -1.840459 -3.654979 -45.089702 0.000003 -0.000002 0.000000 2.054260 14.196196 -43.662384 -0.940063 -3.186690 -41.841104 -0.000001 0.000003 0.000000 3.650437 17.938841 -48.401852 -0.812205 -5.896917 -46.401327 0.000001 -0.000003 -0.000000 0.000002 0.000001 -0.000001 0.000002 0.000001 -0.000001 0.000001 0.000002 -0.000001 0.000002 -0.000002 -0.000001 0.000002 0.000000 -0.000001 0.000002 -0.000002 -0.000001 0.000002 -0.000001 -0.000001 -0.995015 5.041281 5.836273 -27.351916 7.098242 12.553667 175.714990 46.645039 -176.284532 8.858108 -2.876176 -21.044825 -11.580621 0.448323 2.332037 7.904739 -19.192468 -2.856899 0.000001 -0.000003 -0.000001 -1.073601 -1.469159 1.183808 0.253796 -1.543210 12.554740 -0.000000 0.000002 -0.000001 -0.661859 -2.905876 10.305389 -0.008737 -0.001568 9.005782 0.000001 -0.000001 0.000000 2.644919 -8.117465 13.789314 -0.067183 1.580640 9.796648 -0.000000 -0.000001 0.000002 3.958892 -11.704988 8.800466 -0.607010 6.347279 18.197367 0.000001 0.000003 -0.000001 -0.000001 0.000001 -0.000000 -0.000000 0.000001 -0.000000 -0.000001 0.000001 -0.000000 -0.000000 0.000001 -0.000000 -0.000000 0.000001 -0.000000 -0.000000 0.000001 -0.000000 -0.000000 0.000001 -0.000000 -0.000000 -0.000000 -0.000000 -0.000000 -0.000000 -0.000000 -0.000000 -0.000000 -0.000000 -0.000000 -0.000000 -0.000000 -0.000000 -0.000000 -0.000000 -0.000000 -0.000000 -0.000000 -0.000000 -0.000000 -0.000000 -0.000000 0.000002 -0.000000 0.000000 -0.000000 -0.000000 
